<?xml version="1.0" encoding="UTF-8"?>
<svg width="23px" height="20px" viewBox="0 0 23 20" version="1.1" xmlns="http://www.w3.org/2000/svg" xmlns:xlink="http://www.w3.org/1999/xlink">
    <!-- Generator: Sketch 58 (84663) - https://sketch.com -->
    <title>image-add-button copy 2</title>
    <desc>Created with Sketch.</desc>
    <g id="Page-2" stroke="none" stroke-width="1" fill="none" fill-rule="evenodd">
        <g id="Log-Check-Copy-4" transform="translate(-255.000000, -136.000000)" fill-rule="nonzero">
            <g id="image-add-button-copy-2" transform="translate(255.000000, 136.000000)">
                <path d="M20,2.85714286 L17.1428571,2.85714286 L14.2857143,0 L8.57071429,0 L5.71428571,2.85714286 L2.85714286,2.85714286 C2.85714286,2.85714286 0,2.85714286 0,5.71428571 L0,14.2857143 C0,17.1428571 2.85714286,17.1428571 2.85714286,17.1428571 C2.85714286,17.1428571 6.90142857,17.1428571 11.0842857,17.1428571 C12.2371429,18.865 14.1992857,19.9992857 16.4285714,20 C19.1964286,19.9985714 21.5478571,18.2471429 22.4542857,15.7935714 C22.8535714,15.0542857 22.8571429,14.2857143 22.8571429,14.2857143 C22.8571429,14.2857143 22.8571429,8.57142857 22.8571429,5.71428571 C22.8571429,2.85714286 20,2.85714286 20,2.85714286 Z M10.0235714,14.0428571 C8.34714286,13.4628571 7.14285714,11.8757143 7.14285714,10 C7.14285714,7.63428571 9.06,5.71428571 11.4285714,5.71428571 C12.7957143,5.71428571 14.005,6.36285714 14.79,7.36142857 C12.0342857,8.08642857 10,10.5871429 10,13.5714286 C10,13.7307143 10.0128571,13.8864286 10.0235714,14.0428571 Z M16.4285714,18.4878571 C13.7135714,18.4814286 11.5171429,16.285 11.5107143,13.5714286 C11.5171429,10.8564286 13.7135714,8.66 16.4285714,8.65357143 C19.1421429,8.66 21.3385714,10.8564286 21.345,13.5714286 C21.3385714,16.285 19.1421429,18.4814286 16.4285714,18.4878571 Z" id="Shape" fill="#23211A"></path>
                <path d="M16.4292857,10 C16.0344021,10 15.7142857,10.3201164 15.7142857,10.715 L15.7142857,12.8571429 L15.7142857,12.8571429 L13.5714286,12.8571429 C13.1769395,12.8571429 12.8571429,13.1769395 12.8571429,13.5714286 C12.8571429,13.9659177 13.1769395,14.2857143 13.5714286,14.2857143 L15.7142857,14.2857143 L15.7142857,14.2857143 L15.7142857,16.4278571 C15.7142857,16.8227407 16.0344021,17.1428571 16.4292857,17.1428571 C16.8241693,17.1428571 17.1442857,16.8227407 17.1442857,16.4278571 L17.1442857,14.2857143 L17.1442857,14.2857143 L19.2857143,14.2857143 C19.6802034,14.2857143 20,13.9659177 20,13.5714286 C20,13.1769395 19.6802034,12.8571429 19.2857143,12.8571429 L17.1442857,12.8571429 L17.1442857,12.8571429 L17.1442857,10.715 C17.1442857,10.3201164 16.8241693,10 16.4292857,10 Z" id="Path" fill="#010002"></path>
            </g>
        </g>
    </g>
</svg>