<?xml version="1.0" encoding="UTF-8"?>
<svg width="7px" height="18px" viewBox="0 0 7 18" version="1.1" xmlns="http://www.w3.org/2000/svg" xmlns:xlink="http://www.w3.org/1999/xlink">
    <!-- Generator: Sketch 58 (84663) - https://sketch.com -->
    <title>Group 6 Copy 2</title>
    <desc>Created with Sketch.</desc>
    <g id="Page-2" stroke="none" stroke-width="1" fill="none" fill-rule="evenodd">
        <g id="instances" transform="translate(-166.000000, -381.000000)" fill-rule="nonzero" stroke="#23211A" stroke-width="1.07999991">
            <g id="Group-6-Copy-2" transform="translate(167.000000, 382.000000)">
                <ellipse id="Oval-Copy" cx="2.61884549" cy="1.27746936" rx="1.22379418" ry="1.27746936"></ellipse>
                <path d="M5.25620526,5.21375639 C5.25620526,5.21375639 5.32470811,3.78699125 3.88244538,3.78699125 L1.38162845,3.78699125 C-0.00925714206,3.78699125 0.000925714206,5.10456272 2.04281037e-14,5.21375639 L0.000462857103,9.2626192 C0.0231428552,9.48100655 0.229577123,9.72983285 0.485999958,9.72983285 C0.741034222,9.72983285 0.928491349,9.48873708 0.951634204,9.26986657 L1.38579417,15.7180913 C1.41773131,16.0461555 1.63990272,16.1683944 1.91298841,16.1683944 C2.18561124,16.1683944 2.40731979,16.0461555 2.43925693,15.7180913 C2.51574301,15.0635734 2.57560587,14.7363145 2.61884549,14.7363145 C2.66128586,14.7363145 2.729943,15.0635734 2.8248169,15.7180913 C2.85814261,16.0461555 3.07938831,16.1683944 3.35108543,16.1683944 C3.62463397,16.1683944 3.84634253,16.0461555 3.87920538,15.7180913 L4.32632534,9.26600131 C4.32632534,9.48487181 4.52905675,9.73128232 4.78547959,9.73128232 C5.04097671,9.73128232 5.24509669,9.48148971 5.26777669,9.26310236 L5.25620526,5.21375639 Z" id="Path-Copy" stroke-linejoin="round"></path>
            </g>
        </g>
    </g>
</svg>