<?xml version="1.0" encoding="UTF-8"?>
<svg width="13px" height="32px" viewBox="0 0 13 32" version="1.1" xmlns="http://www.w3.org/2000/svg" xmlns:xlink="http://www.w3.org/1999/xlink">
    <!-- Generator: Sketch 58 (84663) - https://sketch.com -->
    <title>Group 6</title>
    <desc>Created with Sketch.</desc>
    <g id="Page-2" stroke="none" stroke-width="1" fill="none" fill-rule="evenodd">
        <g id="Log-Check-Copy-2" transform="translate(-34.000000, -402.000000)" fill-rule="nonzero" stroke="#F4AE7C" stroke-width="1.79999995">
            <g id="Group-6" transform="translate(35.036000, 403.000000)">
                <circle id="Oval-Copy" cx="5.09219987" cy="2.37959994" r="2.37959994"></circle>
                <path d="M10.2203997,9.71189974 C10.2203997,9.71189974 10.3535997,7.05419981 7.5491998,7.05419981 L2.68649993,7.05419981 C-0.0179999995,7.05419981 0.00179999995,9.50849975 2.04281037e-14,9.71189974 L0.000899999976,17.2538995 C0.0449999988,17.6606995 0.446399988,18.1241995 0.944999975,18.1241995 C1.44089996,18.1241995 1.80539995,17.6750995 1.85039995,17.2673995 L2.69459993,29.2787992 C2.75669993,29.8898992 3.18869992,30.1175992 3.7196999,30.1175992 C4.24979989,30.1175992 4.68089988,29.8898992 4.74299987,29.2787992 C4.89172282,28.0595993 5.00812282,27.4499993 5.09219987,27.4499993 C5.17472281,27.4499993 5.30822281,28.0595993 5.49269985,29.2787992 C5.55749985,29.8898992 5.98769984,30.1175992 6.51599983,30.1175992 C7.04789981,30.1175992 7.4789998,29.8898992 7.5428998,29.2787992 L8.41229978,17.2601995 C8.41229978,17.6678995 8.80649977,18.1268995 9.30509975,18.1268995 C9.80189974,18.1268995 10.1987997,17.6615995 10.2428997,17.2547995 L10.2203997,9.71189974 Z" id="Path-Copy" stroke-linejoin="round"></path>
            </g>
        </g>
    </g>
</svg>