<?xml version="1.0" encoding="UTF-8"?>
<svg width="20px" height="20px" viewBox="0 0 20 20" version="1.1" xmlns="http://www.w3.org/2000/svg" xmlns:xlink="http://www.w3.org/1999/xlink">
    <!-- Generator: Sketch 58 (84663) - https://sketch.com -->
    <title>002-chat-comment-oval-speech-bubble-with-text-lines</title>
    <desc>Created with Sketch.</desc>
    <g id="Page-2" stroke="none" stroke-width="1" fill="none" fill-rule="evenodd">
        <g id="Home" transform="translate(-262.000000, -184.000000)" fill="#23211A" fill-rule="nonzero">
            <g id="002-chat-comment-oval-speech-bubble-with-text-lines" transform="translate(262.000000, 184.000000)">
                <path d="M12.8520011,10.4040009 L6.73200058,10.4040009 C6.39417655,10.4040009 6.12000052,10.6781769 6.12000052,11.0160009 C6.12000052,11.353825 6.39417655,11.628001 6.73200058,11.628001 L12.8520011,11.628001 C13.1898251,11.628001 13.4640012,11.353825 13.4640012,11.0160009 C13.4640012,10.6781769 13.1898251,10.4040009 12.8520011,10.4040009 Z M14.0760012,6.73200058 L5.50800047,6.73200058 C5.17017644,6.73200058 4.89600042,7.0061766 4.89600042,7.34400063 C4.89600042,7.68182466 5.17017644,7.95600068 5.50800047,7.95600068 L14.0760012,7.95600068 C14.4138252,7.95600068 14.6880013,7.68182466 14.6880013,7.34400063 C14.6880013,7.0061766 14.4138252,6.73200058 14.0760012,6.73200058 Z M9.79200084,0 C4.38438438,0 0,3.83600033 0,8.56800073 C0,11.272449 1.43513612,13.6800332 3.67200031,15.2504333 L3.67200031,19.5840017 L7.96150468,16.9811535 C8.55516873,17.0791055 9.16592079,17.1360015 9.79200084,17.1360015 C15.2002573,17.1360015 19.5840017,13.3000011 19.5840017,8.56800073 C19.5840017,3.83600033 15.2002573,0 9.79200084,0 Z M9.79200084,15.9120014 C9.07718478,15.9120014 8.38684872,15.8287694 7.72342466,15.6873933 L4.84211241,17.4193295 L4.88067242,14.5808972 C2.67200023,13.2522571 1.2240001,11.0564169 1.2240001,8.56800073 C1.2240001,4.51228839 5.06000043,1.2240001 9.79200084,1.2240001 C14.5240012,1.2240001 18.3600016,4.51228839 18.3600016,8.56800073 C18.3600016,12.6237131 14.5240012,15.9120014 9.79200084,15.9120014 Z" id="Shape"></path>
            </g>
        </g>
    </g>
</svg>