<?xml version="1.0" encoding="UTF-8"?>
<svg width="20px" height="18px" viewBox="0 0 20 18" version="1.1" xmlns="http://www.w3.org/2000/svg" xmlns:xlink="http://www.w3.org/1999/xlink">
    <!-- Generator: Sketch 58 (84663) - https://sketch.com -->
    <title>002-heart copy</title>
    <desc>Created with Sketch.</desc>
    <g id="Page-2" stroke="none" stroke-width="1" fill="none" fill-rule="evenodd">
        <g id="Home" transform="translate(-236.000000, -435.000000)" fill="#000000" fill-rule="nonzero">
            <g id="002-heart-copy" transform="translate(236.000000, 435.000000)">
                <path d="M8.85776327,16.8029289 C8.08212856,16.1247063 7.33432583,15.4873528 6.67456024,14.9251458 L6.67119113,14.9222161 C4.73686501,13.2738275 3.06650379,11.8502924 1.90429679,10.4479976 C0.605126935,8.88032188 0,7.39394498 0,5.77016577 C0,4.1925291 0.540966763,2.73706042 1.52314448,1.67167961 C2.51704091,0.593701136 3.88081036,2.84217094e-14 5.36367164,2.84217094e-14 C6.47197239,2.84217094e-14 7.48696257,0.350390609 8.3803707,1.04135737 C8.83124961,1.39013664 9.23994101,1.81699211 9.59999957,2.31489248 C9.96020464,1.81699211 10.3687495,1.39013664 10.8197749,1.04135737 C11.7131831,0.350390609 12.7281733,2.84217094e-14 13.836474,2.84217094e-14 C15.3191888,2.84217094e-14 16.6831047,0.593701136 17.6770012,1.67167961 C18.6591789,2.73706042 19.1999991,4.1925291 19.1999991,5.77016577 C19.1999991,7.39394498 18.5950187,8.88032188 17.2958488,10.4478511 C16.1336419,11.8502924 14.4634271,13.2736811 12.529394,14.9219232 C11.8684565,15.4850091 11.1194819,16.1233879 10.3420894,16.8032219 C10.1368648,16.9828117 9.87319291,17.0818352 9.59999957,17.0818352 C8.94823422,17.0818352 9.34841016,17.2319554 8.85776327,16.8029289 Z" id="Shape"></path>
            </g>
        </g>
    </g>
</svg>