<?xml version="1.0" encoding="UTF-8"?>
<svg width="20px" height="18px" viewBox="0 0 20 18" version="1.1" xmlns="http://www.w3.org/2000/svg" xmlns:xlink="http://www.w3.org/1999/xlink">
    <!-- Generator: Sketch 58 (84663) - https://sketch.com -->
    <title>002-heart</title>
    <desc>Created with Sketch.</desc>
    <g id="Page-2" stroke="none" stroke-width="1" fill="none" fill-rule="evenodd">
        <g id="Home" transform="translate(-236.000000, -186.000000)" fill="#000000" fill-rule="nonzero">
            <g id="002-heart" transform="translate(236.000000, 186.000000)">
                <path d="M8.85776327,16.8029289 C8.08212856,16.1247063 7.33432583,15.4873528 6.67456024,14.9251458 L6.67119113,14.9222161 C4.73686501,13.2738275 3.06650379,11.8502924 1.90429679,10.4479976 C0.605126935,8.88032188 0,7.39394498 0,5.77016577 C0,4.1925291 0.540966763,2.73706042 1.52314448,1.67167961 C2.51704091,0.593701136 3.88081036,2.84217094e-14 5.36367164,2.84217094e-14 C6.47197239,2.84217094e-14 7.48696257,0.350390609 8.3803707,1.04135737 C8.83124961,1.39013664 9.23994101,1.81699211 9.59999957,2.31489248 C9.96020464,1.81699211 10.3687495,1.39013664 10.8197749,1.04135737 C11.7131831,0.350390609 12.7281733,2.84217094e-14 13.836474,2.84217094e-14 C15.3191888,2.84217094e-14 16.6831047,0.593701136 17.6770012,1.67167961 C18.6591789,2.73706042 19.1999991,4.1925291 19.1999991,5.77016577 C19.1999991,7.39394498 18.5950187,8.88032188 17.2958488,10.4478511 C16.1336419,11.8502924 14.4634271,13.2736811 12.529394,14.9219232 C11.8684565,15.4850091 11.1194819,16.1233879 10.3420894,16.8032219 C10.1368648,16.9828117 9.87319291,17.0818352 9.59999957,17.0818352 C9.32665976,17.0818352 9.06313437,16.9828117 8.85776327,16.8029289 Z M5.36367164,1.124707 C4.19868146,1.124707 3.12846665,1.58964837 2.34990222,2.43398427 C1.55976556,3.29106432 1.12456049,4.47582989 1.12456049,5.77016577 C1.12456049,7.13583951 1.63212885,8.35722619 2.7701659,9.73037064 C3.87011701,11.0576655 5.50620092,12.4519037 7.40053677,14.0663079 C8.06630821,14.6336419 8.81704063,15.2734857 9.59838823,15.9566887 C10.3844234,15.2721673 11.1363276,14.6312982 11.7999018,14.066015 C13.6940912,12.4516108 15.3300286,11.0576655 16.4299797,9.73037064 C17.5678703,8.35722619 18.0754387,7.13583951 18.0754387,5.77016577 C18.0754387,4.47582989 17.6402336,3.29106432 16.8500969,2.43398427 C16.071679,1.58964837 15.0013177,1.124707 13.836474,1.124707 C12.9830561,1.124707 12.1995112,1.39599601 11.5076655,1.93095696 C10.8911128,2.40791007 10.4616206,3.01083969 10.209814,3.43271467 C10.0803218,3.64965805 9.85239215,3.77915023 9.59999957,3.77915023 C9.34760699,3.77915023 9.11967732,3.64965805 8.99018514,3.43271467 C8.73852501,3.01083969 8.30903284,2.40791007 7.69233363,1.93095696 C7.00048799,1.39599601 6.21694307,1.124707 5.36367164,1.124707 Z" id="Shape"></path>
            </g>
        </g>
    </g>
</svg>