<?xml version="1.0" encoding="UTF-8"?>
<svg width="17px" height="17px" viewBox="0 0 17 17" version="1.1" xmlns="http://www.w3.org/2000/svg" xmlns:xlink="http://www.w3.org/1999/xlink">
    <!-- Generator: Sketch 58 (84663) - https://sketch.com -->
    <title>Shape Copy 8</title>
    <desc>Created with Sketch.</desc>
    <g id="Page-2" stroke="none" stroke-width="1" fill="none" fill-rule="evenodd">
        <g id="instances" transform="translate(-162.000000, -264.000000)" fill="#23211A" fill-rule="nonzero">
            <path d="M176.722004,272.61631 L177.686255,271.652061 C179.437816,269.9005 179.438015,267.065459 177.686255,265.313732 C175.93476,263.562205 173.099683,263.561973 171.347956,265.313732 C170.97409,265.687532 163.652848,273.008837 163.313745,273.347939 C161.562184,275.0995 161.561985,277.934541 163.313745,279.686268 C165.06524,281.437795 167.900317,281.438027 169.652044,279.686268 L170.616327,278.722018 C171.387169,280.080388 172.846809,280.998983 174.517089,280.998983 C176.988393,280.998983 178.998971,278.988406 178.998971,276.517103 C178.998971,274.846791 178.080408,273.387152 176.722004,272.61631 Z M170.035207,276.51707 C170.035207,276.936591 170.093312,277.342797 170.201587,277.728218 L168.947807,278.981998 C167.585518,280.344252 165.38047,280.344452 164.018016,278.981998 C162.655727,277.619743 162.655528,275.414663 164.018016,274.052209 L167.652589,270.417638 L170.989895,273.754909 C170.392073,274.51662 170.035207,275.475956 170.035207,276.51707 Z M174.019076,279.967265 C172.331995,279.724883 171.031166,278.270158 171.031166,276.51707 C171.031166,274.763983 172.331995,273.309258 174.019076,273.066876 L174.019076,279.967265 L174.019076,279.967265 Z M171.687524,273.044065 L168.356825,269.713368 L172.052193,266.018002 C173.414482,264.655748 175.61953,264.655548 176.981984,266.018002 C178.344273,267.380257 178.344472,269.585337 176.981984,270.947791 L175.728204,272.201571 C175.342783,272.093263 174.936609,272.035191 174.517089,272.035191 C173.444962,272.035191 172.459694,272.413805 171.687524,273.044065 Z M175.015068,279.967265 L175.015068,273.066909 C176.702149,273.309291 178.002979,274.764016 178.002979,276.517103 C178.002979,278.270158 176.702149,279.724883 175.015068,279.967265 Z" id="Shape-Copy-8"></path>
        </g>
    </g>
</svg>