<?xml version="1.0" encoding="UTF-8"?>
<svg width="29px" height="29px" viewBox="0 0 29 29" version="1.1" xmlns="http://www.w3.org/2000/svg" xmlns:xlink="http://www.w3.org/1999/xlink">
    <!-- Generator: Sketch 58 (84663) - https://sketch.com -->
    <title>Shape Copy</title>
    <desc>Created with Sketch.</desc>
    <g id="Page-2" stroke="none" stroke-width="1" fill="none" fill-rule="evenodd">
        <g id="Log-Check-Copy-2" transform="translate(-26.000000, -271.000000)" fill="#6DBFDA" fill-rule="nonzero">
            <path d="M50.8922396,285.62473 L52.5226116,283.994358 C55.4841836,281.032786 55.4845205,276.239242 52.5226116,273.27739 C49.5611518,270.315874 44.7675516,270.315481 41.8056989,273.27739 C41.1735585,273.909418 28.7946668,286.288422 28.2213054,286.861783 C25.2597333,289.823355 25.2593965,294.616899 28.2213054,297.578752 C31.1827651,300.540268 35.9763653,300.540661 38.9382181,297.578752 L40.5686462,295.94838 C41.8720006,298.245138 44.3399867,299.798317 47.1641272,299.798317 C51.3426536,299.798317 54.7421766,296.398794 54.7421766,292.220268 C54.7421766,289.396071 53.1890537,286.928085 50.8922396,285.62473 Z M39.5860777,292.220211 C39.5860777,292.929545 39.6843234,293.616366 39.867397,294.268043 L37.7474812,296.387959 C35.4440986,298.691285 31.7157616,298.691622 29.4120984,296.387959 C27.1087158,294.084632 27.108379,290.356239 29.4120984,288.052576 L35.5575021,281.907172 L41.2002813,287.549895 C40.1894742,288.837811 39.5860777,290.459874 39.5860777,292.220211 Z M46.322078,298.053868 C43.4695305,297.644043 41.2700638,295.184366 41.2700638,292.220211 C41.2700638,289.256057 43.4695305,286.79638 46.322078,286.386555 L46.322078,298.053868 L46.322078,298.053868 Z M42.3798463,286.347987 L36.748239,280.716379 L42.9964358,274.468183 C45.2998183,272.164856 49.0281553,272.164519 51.3318186,274.468183 C53.6352011,276.771509 53.6355379,280.499902 51.3318186,282.803565 L49.2119027,284.923481 C48.5602255,284.740351 47.8734605,284.642162 47.1641272,284.642162 C45.3513552,284.642162 43.6854463,285.28233 42.3798463,286.347987 Z M48.0061202,298.053868 L48.0061202,286.386611 C50.8586677,286.796436 53.0581344,289.256113 53.0581344,292.220268 C53.0581344,295.184366 50.8586677,297.644043 48.0061202,298.053868 Z" id="Shape-Copy"></path>
        </g>
    </g>
</svg>