<?xml version="1.0" encoding="UTF-8"?>
<svg width="30px" height="29px" viewBox="0 0 30 29" version="1.1" xmlns="http://www.w3.org/2000/svg" xmlns:xlink="http://www.w3.org/1999/xlink">
    <!-- Generator: Sketch 58 (84663) - https://sketch.com -->
    <title>Shape Copy 3</title>
    <desc>Created with Sketch.</desc>
    <g id="Page-2" stroke="none" stroke-width="1" fill="none" fill-rule="evenodd">
        <g id="Log-Check-Copy-2" transform="translate(-25.000000, -138.000000)" fill="#DEA4D1" fill-rule="nonzero">
            <path d="M50.2583842,142.243138 C44.601575,136.585849 35.3980491,136.585849 29.7423335,142.241771 C24.0855243,147.897693 24.0860711,157.101384 29.7428804,162.7584 C35.3980491,168.414049 44.601575,168.414049 50.2578374,162.757306 C55.9140998,157.101384 55.9138263,147.89824 50.2583842,142.243138 Z M48.6754729,161.175507 C43.8920129,165.958911 36.1084314,165.959458 31.324698,161.176054 C26.5401442,156.39183 26.540691,148.60752 31.324698,143.824117 C36.108158,139.040986 43.891466,139.04044 48.6760198,143.824663 C53.4594799,148.608067 53.458933,156.392377 48.6754729,161.175507 Z M34.5889569,148.573888 C34.5889569,147.63766 35.348284,146.878342 36.2845232,146.878342 C37.2204888,146.878342 37.979816,147.637387 37.979816,148.573888 C37.979816,149.510663 37.2204888,150.269708 36.2845232,150.269708 C35.348284,150.269708 34.5889569,149.510663 34.5889569,148.573888 Z M42.2771098,148.573888 C42.2771098,147.63766 43.0369838,146.878342 43.9732229,146.878342 C44.9091886,146.878342 45.6685157,147.637387 45.6685157,148.573888 C45.6685157,149.510663 44.909462,150.269708 43.9732229,150.269708 C43.0369838,150.269708 42.2771098,149.510663 42.2771098,148.573888 Z M46.285657,155.518218 C45.2348489,157.9482 42.7739399,159.518242 40.0166282,159.518242 C37.1999813,159.518242 34.7245803,157.940271 33.710139,155.497984 C33.5362348,155.079908 33.7344747,154.599763 34.1531026,154.425861 C34.2559139,154.383479 34.3625533,154.363245 34.4675521,154.363245 C34.7891108,154.363245 35.0942635,154.55328 35.2252386,154.869093 C35.9845657,156.697253 37.865247,157.877928 40.0166282,157.877928 C42.1193382,157.877928 43.9890821,156.696433 44.7798541,154.867178 C44.9597739,154.45129 45.4426589,154.259615 45.8582791,154.439806 C46.2738993,154.619997 46.4655767,155.102603 46.285657,155.518218 Z" id="Shape-Copy-3"></path>
        </g>
    </g>
</svg>