<?xml version="1.0" encoding="UTF-8"?>
<svg width="17px" height="17px" viewBox="0 0 17 17" version="1.1" xmlns="http://www.w3.org/2000/svg" xmlns:xlink="http://www.w3.org/1999/xlink">
    <!-- Generator: Sketch 58 (84663) - https://sketch.com -->
    <title>Shape Copy 10</title>
    <desc>Created with Sketch.</desc>
    <g id="Page-2" stroke="none" stroke-width="1" fill="none" fill-rule="evenodd">
        <g id="instances" transform="translate(-162.000000, -143.000000)" fill="#23211A" fill-rule="nonzero">
            <path d="M176.513536,145.487357 C173.197475,142.171015 167.802305,142.171015 164.486885,145.486555 C161.170825,148.802096 161.171145,154.197363 164.487206,157.513545 C167.802305,160.828925 173.197475,160.828925 176.513215,157.512904 C179.828955,154.197363 179.828795,148.802417 176.513536,145.487357 Z M175.585622,156.585642 C172.781525,159.389706 168.218736,159.390027 165.414478,156.585963 C162.60974,153.781418 162.61006,149.218202 165.414478,146.414137 C168.218575,143.610233 172.781204,143.609913 175.585943,146.414458 C178.39004,149.218522 178.389719,153.781738 175.585622,156.585642 Z M167.328009,149.198486 C167.328009,148.649663 167.773132,148.204545 168.321962,148.204545 C168.870631,148.204545 169.315754,148.649503 169.315754,149.198486 C169.315754,149.74763 168.870631,150.192587 168.321962,150.192587 C167.773132,150.192587 167.328009,149.74763 167.328009,149.198486 Z M171.834857,149.198486 C171.834857,148.649663 172.280301,148.204545 172.829131,148.204545 C173.3778,148.204545 173.822923,148.649503 173.822923,149.198486 C173.822923,149.74763 173.37796,150.192587 172.829131,150.192587 C172.280301,150.192587 171.834857,149.74763 171.834857,149.198486 Z M174.184695,153.2693 C173.568705,154.693772 172.126103,155.614142 170.509748,155.614142 C168.85861,155.614142 167.407513,154.689124 166.81284,153.257439 C166.710896,153.01236 166.827106,152.730895 167.072508,152.628953 C167.132777,152.604108 167.19529,152.592247 167.256841,152.592247 C167.445341,152.592247 167.624223,152.703647 167.701002,152.888778 C168.146125,153.960459 169.248593,154.652579 170.509748,154.652579 C171.742371,154.652579 172.838427,153.959978 173.301983,152.887656 C173.407454,152.64386 173.690524,152.531498 173.934164,152.637127 C174.177803,152.742757 174.290166,153.025664 174.184695,153.2693 Z" id="Shape-Copy-10"></path>
        </g>
    </g>
</svg>