<?xml version="1.0" encoding="UTF-8"?>
<svg width="15px" height="17px" viewBox="0 0 15 17" version="1.1" xmlns="http://www.w3.org/2000/svg" xmlns:xlink="http://www.w3.org/1999/xlink">
    <!-- Generator: Sketch 58 (84663) - https://sketch.com -->
    <title>Shape Copy 6</title>
    <desc>Created with Sketch.</desc>
    <g id="Page-2" stroke="none" stroke-width="1" fill="none" fill-rule="evenodd">
        <g id="instances" transform="translate(-163.000000, -323.000000)" fill="#23211A" fill-rule="nonzero">
            <path d="M173.982154,326.187496 C173.208932,326.187496 172.461339,326.355598 171.801623,326.503975 C171.525337,326.565978 171.264938,326.620135 171.022318,326.660906 C171.04044,325.758334 170.748049,324.835915 170.175122,324.130461 C169.582925,323.40156 168.771505,323 167.891014,323 C167.630491,323 167.408134,323.185733 167.363142,323.439932 C167.167222,324.555931 167.373412,325.508844 167.895514,326.2563 C167.608367,326.217067 167.316194,326.187496 167.017846,326.187496 C164.652131,326.187496 163,328.372169 163,331.5 C163,335.06364 164.799676,340 168.17875,340 C168.796608,340 169.323953,339.815313 169.747691,339.666936 C170.040144,339.564222 170.292816,339.476002 170.459724,339.468248 C170.666907,339.476033 170.941021,339.5689 171.230867,339.667982 C171.687589,339.823621 172.204974,340 172.82125,340 C176.200324,340 178,335.063609 178,331.5 C178,328.372169 176.347869,326.187496 173.982154,326.187496 Z M169.340709,324.797113 C169.733604,325.281139 169.956457,325.928097 169.964308,326.555824 C169.084344,326.217036 168.291263,325.524968 168.360831,324.125753 C168.812309,324.251329 169.134053,324.542915 169.340709,324.797113 Z M172.821281,338.937512 C172.383921,338.937512 171.974798,338.797966 171.578769,338.663066 C171.211505,338.538044 170.864658,338.41976 170.459724,338.406775 C170.09038,338.41976 169.734628,338.544259 169.390915,338.665128 C169.008477,338.798981 168.612976,338.937512 168.17875,338.937512 C165.63412,338.937512 164.071446,334.605553 164.071446,331.5 C164.071446,329.384347 164.982253,327.249985 167.017877,327.249985 C167.671295,327.249985 168.32735,327.397316 168.961933,327.54 C169.513854,327.664007 170.035458,327.781244 170.500031,327.781244 C170.964604,327.781244 171.486177,327.664007 172.038129,327.54 C172.672712,327.397346 173.328767,327.249985 173.982185,327.249985 C176.017778,327.249985 176.928616,329.384316 176.928616,331.5 C176.928616,334.605553 175.365911,338.937512 172.821281,338.937512 L172.821281,338.937512 Z" id="Shape-Copy-6"></path>
        </g>
    </g>
</svg>