<?xml version="1.0" encoding="UTF-8"?>
<svg width="26px" height="29px" viewBox="0 0 26 29" version="1.1" xmlns="http://www.w3.org/2000/svg" xmlns:xlink="http://www.w3.org/1999/xlink">
    <!-- Generator: Sketch 58 (84663) - https://sketch.com -->
    <title>Shape Copy 4</title>
    <desc>Created with Sketch.</desc>
    <g id="Page-2" stroke="none" stroke-width="1" fill="none" fill-rule="evenodd">
        <g id="Log-Check-Copy-2" transform="translate(-27.000000, -337.000000)" fill="#BAE1BD" fill-rule="nonzero">
            <path d="M45.8441304,342.437493 C44.5554264,342.437493 43.3094395,342.724255 42.2099116,342.977369 C41.7494348,343.083139 41.3154365,343.175524 40.9110713,343.245076 C40.9412732,341.705394 40.453956,340.131855 39.4990769,338.928434 C38.5120824,337.685015 37.1597163,337 35.692231,337 C35.2580258,337 34.887431,337.316839 34.8124432,337.750472 C34.4859101,339.654235 34.8295611,341.279793 35.6997298,342.554865 C35.2211525,342.487938 34.7341973,342.437493 34.2369506,342.437493 C30.2940924,342.437493 27.5405405,346.164288 27.5405405,351.5 C27.5405405,357.57915 30.5400006,366 36.1717909,366 C37.2015543,366 38.080463,365.684946 38.7866929,365.431832 C39.2741136,365.256615 39.6952347,365.106122 39.9734135,365.092894 C40.3187194,365.106174 40.7755761,365.264594 41.2586526,365.433616 C42.0198563,365.699119 42.8821642,366 43.9092902,366 C49.5410805,366 52.5405405,357.579098 52.5405405,351.5 C52.5405405,346.164288 49.7869887,342.437493 45.8441304,342.437493 Z M38.1083895,340.065663 C38.763214,340.891355 39.1346363,341.99499 39.1477203,343.065817 C37.6811142,342.487885 36.3593121,341.307298 36.4752588,338.920403 C37.2277225,339.134621 37.7639628,339.632031 38.1083895,340.065663 Z M43.9093419,364.18752 C43.1804088,364.18752 42.498537,363.949471 41.8384893,363.719348 C41.226382,363.506075 40.6483037,363.304297 39.9734135,363.282146 C39.3578413,363.304297 38.7649206,363.516678 38.1920655,363.722865 C37.5546693,363.951203 36.8955007,364.18752 36.1717909,364.18752 C31.9307398,364.18752 29.3262844,356.797708 29.3262844,351.5 C29.3262844,347.890944 30.8442959,344.249974 34.2370024,344.249974 C35.326032,344.249974 36.4194575,344.501303 37.4770957,344.744706 C38.3969632,344.956247 39.2663045,345.15624 40.0405923,345.15624 C40.81488,345.15624 41.6841696,344.956247 42.6040888,344.744706 C43.661727,344.501356 44.7551525,344.249974 45.8441822,344.249974 C49.2368369,344.249974 50.7549001,347.890892 50.7549001,351.5 C50.7549001,356.797708 48.150393,364.18752 43.9093419,364.18752 L43.9093419,364.18752 Z" id="Shape-Copy-4"></path>
        </g>
    </g>
</svg>