<?xml version="1.0" encoding="UTF-8"?>
<svg width="29px" height="30px" viewBox="0 0 29 30" version="1.1" xmlns="http://www.w3.org/2000/svg" xmlns:xlink="http://www.w3.org/1999/xlink">
    <!-- Generator: Sketch 58 (84663) - https://sketch.com -->
    <title>Shape Copy 5</title>
    <desc>Created with Sketch.</desc>
    <g id="Page-2" stroke="none" stroke-width="1" fill="none" fill-rule="evenodd">
        <g id="Log-Check-Copy-2" transform="translate(-25.000000, -470.000000)" fill="#CCF1FF" fill-rule="nonzero" stroke="#CCF1FF" stroke-width="0.5">
            <path d="M39.5,499 C37.3942727,499 35.6818182,497.304091 35.6818182,495.219364 L35.6818182,488.818182 L29.2806364,488.818182 C27.1959091,488.818182 25.5,487.105727 25.5,485 C25.5,482.894273 27.1959091,481.181818 29.2806364,481.181818 L35.6818182,481.181818 L35.6818182,474.780636 C35.6818182,472.695909 37.3942727,471 39.5,471 C41.6057273,471 43.3181818,472.695909 43.3181818,474.780636 L43.3181818,481.181818 L49.7193636,481.181818 C51.8040909,481.181818 53.5,482.894273 53.5,485 C53.5,487.105727 51.8040909,488.818182 49.7193636,488.818182 L43.3181818,488.818182 L43.3181818,495.219364 C43.3181818,497.304091 41.6057273,499 39.5,499 Z M29.2806364,482.454545 C27.9213636,482.454545 26.7727273,483.620364 26.7727273,485 C26.7727273,486.379636 27.9213636,487.545455 29.2806364,487.545455 L36.9545455,487.545455 L36.9545455,495.219364 C36.9545455,496.578636 38.1203636,497.727273 39.5,497.727273 C40.8796364,497.727273 42.0454545,496.578636 42.0454545,495.219364 L42.0454545,487.545455 L49.7193636,487.545455 C51.0786364,487.545455 52.2272727,486.379636 52.2272727,485 C52.2272727,483.620364 51.0786364,482.454545 49.7193636,482.454545 L42.0454545,482.454545 L42.0454545,474.780636 C42.0454545,473.421364 40.8796364,472.272727 39.5,472.272727 C38.1203636,472.272727 36.9545455,473.421364 36.9545455,474.780636 L36.9545455,482.454545 L29.2806364,482.454545 Z" id="Shape-Copy-5"></path>
        </g>
    </g>
</svg>