<?xml version="1.0" encoding="UTF-8"?>
<svg width="19px" height="19px" viewBox="0 0 19 19" version="1.1" xmlns="http://www.w3.org/2000/svg" xmlns:xlink="http://www.w3.org/1999/xlink">
    <!-- Generator: Sketch 58 (84663) - https://sketch.com -->
    <title>Shape Copy 7</title>
    <desc>Created with Sketch.</desc>
    <g id="Page-2" stroke="none" stroke-width="1" fill="none" fill-rule="evenodd">
        <g id="instances" transform="translate(-161.000000, -442.000000)" fill="#23211A" fill-rule="nonzero" stroke="#23211A" stroke-width="0.5">
            <path d="M170.5,460 C169.221523,460 168.181818,458.970341 168.181818,457.704614 L168.181818,453.818182 L164.295386,453.818182 C163.029659,453.818182 162,452.778477 162,451.5 C162,450.221523 163.029659,449.181818 164.295386,449.181818 L168.181818,449.181818 L168.181818,445.295386 C168.181818,444.029659 169.221523,443 170.5,443 C171.778477,443 172.818182,444.029659 172.818182,445.295386 L172.818182,449.181818 L176.704614,449.181818 C177.970341,449.181818 179,450.221523 179,451.5 C179,452.778477 177.970341,453.818182 176.704614,453.818182 L172.818182,453.818182 L172.818182,457.704614 C172.818182,458.970341 171.778477,460 170.5,460 Z M164.295386,449.954545 C163.470114,449.954545 162.772727,450.662364 162.772727,451.5 C162.772727,452.337636 163.470114,453.045455 164.295386,453.045455 L168.954545,453.045455 L168.954545,457.704614 C168.954545,458.529886 169.662364,459.227273 170.5,459.227273 C171.337636,459.227273 172.045455,458.529886 172.045455,457.704614 L172.045455,453.045455 L176.704614,453.045455 C177.529886,453.045455 178.227273,452.337636 178.227273,451.5 C178.227273,450.662364 177.529886,449.954545 176.704614,449.954545 L172.045455,449.954545 L172.045455,445.295386 C172.045455,444.470114 171.337636,443.772727 170.5,443.772727 C169.662364,443.772727 168.954545,444.470114 168.954545,445.295386 L168.954545,449.954545 L164.295386,449.954545 Z" id="Shape-Copy-7"></path>
        </g>
    </g>
</svg>