<?xml version="1.0" encoding="UTF-8"?>
<svg width="16px" height="21px" viewBox="0 0 16 21" version="1.1" xmlns="http://www.w3.org/2000/svg" xmlns:xlink="http://www.w3.org/1999/xlink">
    <!-- Generator: Sketch 58 (84663) - https://sketch.com -->
    <title>001-export</title>
    <desc>Created with Sketch.</desc>
    <g id="Page-2" stroke="none" stroke-width="1" fill="none" fill-rule="evenodd">
        <g id="Patient's-data" transform="translate(-268.000000, -96.000000)" fill="#000000" fill-rule="nonzero">
            <g id="001-export" transform="translate(268.000000, 96.000000)">
                <path d="M11.8261082,7.55998937 L11.8261082,8.18396883 C11.8261082,8.73625358 12.2738234,9.18396883 12.8261082,9.18396883 L13.1380979,9.18396883 L13.1380979,9.18396883 L13.1380979,18.3679784 L2.64209862,18.3679784 L2.64209862,9.18400955 L2.95408835,9.18400955 C3.5063731,9.18400955 3.95408835,8.7362943 3.95408835,8.18400955 L3.95408835,7.55998937 C3.95408835,7.00770462 3.5063731,6.55998937 2.95408835,6.55998937 L1.01807844,6.55998937 C0.465793689,6.55998937 0.0180784384,7.00770462 0.0180784384,7.55998937 L0.0180784384,19.9920393 C0.0180784384,20.544324 0.465793689,20.9920393 1.01807844,20.9920393 L14.7620774,20.9920393 C15.3143621,20.9920393 15.7620774,20.544324 15.7620774,19.9920393 L15.7620774,7.55998937 C15.7620774,7.00770462 15.3143621,6.55998937 14.7620774,6.55998937 L12.8261082,6.55998937 C12.2738234,6.55998937 11.8261082,7.00770462 11.8261082,7.55998937 Z" id="Path"></path>
                <path d="M6.57810853,5.02250777 L6.57810853,10.4959993 C6.57810853,11.2205912 7.16550634,11.807989 7.89009826,11.807989 C8.61469018,11.807989 9.20208799,11.2205912 9.20208799,10.4959993 L9.20208799,5.02246705 L9.20208799,5.02246705 L9.97082879,5.79120785 C10.4831388,6.30351786 11.3137574,6.30351786 11.8260675,5.79120785 C12.3383775,5.27889784 12.3383775,4.4482792 11.8260675,3.93596919 L9.30431182,1.41421356 C8.52326324,0.633164979 7.25693328,0.633164979 6.4758847,1.41421356 L3.95408835,3.93600991 C3.44177834,4.44831992 3.44177834,5.27893856 3.95408835,5.79124857 C4.46640016,6.30356038 5.29702018,6.30356537 5.80933814,5.7912597 L6.57810853,5.02250777 L6.57810853,5.02250777 Z" id="Path"></path>
            </g>
        </g>
    </g>
</svg>