<?xml version="1.0" encoding="UTF-8"?>
<svg width="33px" height="28px" viewBox="0 0 33 28" version="1.1" xmlns="http://www.w3.org/2000/svg" xmlns:xlink="http://www.w3.org/1999/xlink">
    <!-- Generator: Sketch 58 (84663) - https://sketch.com -->
    <title>Shape Copy 2</title>
    <desc>Created with Sketch.</desc>
    <g id="Page-2" stroke="none" stroke-width="1" fill="none" fill-rule="evenodd">
        <g id="Log-Check-Copy-2" transform="translate(-24.000000, -206.000000)" fill="#FB9494" fill-rule="nonzero">
            <path d="M47.8125,206 C45.1665625,206 42.867,207.26502 41.1625625,209.658386 C40.8256875,210.131309 40.54425,210.603604 40.3125,211.0425 C40.08075,210.603604 39.7993125,210.131309 39.4624375,209.658386 C37.758,207.26502 35.4584375,206 32.8125,206 C27.9125,206 24.3125,210.096717 24.3125,215.11963 C24.3125,220.718048 28.8409375,224.549331 35.6955625,230.348708 C36.972375,231.428965 38.292625,232.546012 39.6985,233.769911 C39.8746875,233.923283 40.0935625,234 40.3125,234 C40.5314375,234 40.7503125,233.923283 40.9265,233.769911 C42.332375,232.546012 43.652625,231.428965 44.9294375,230.348708 C51.7840625,224.549268 56.3125,220.718048 56.3125,215.11963 C56.3125,210.098036 52.7141875,206 47.8125,206 Z M43.7215625,228.908218 C42.62675,229.834476 41.500125,230.787666 40.3125,231.814121 C39.124875,230.787666 37.99825,229.834476 36.9034375,228.908218 C33.2190625,225.790933 30.2491875,223.277782 28.3784375,220.81611 L32.8125,220.81611 C33.167625,220.81611 33.49225,220.614586 33.651,220.295537 L34.6875,218.213309 L37.599,224.062345 C37.75775,224.381394 38.082375,224.582918 38.4375,224.582918 C38.792625,224.582918 39.11725,224.381394 39.276,224.062345 L40.3125,221.980054 L41.349,224.062282 C41.50775,224.381331 41.832375,224.582855 42.1875,224.582855 C42.542625,224.582855 42.86725,224.381331 43.026,224.062282 L45.9375,218.213309 L46.974,220.295537 C47.13275,220.614586 47.457375,220.809832 47.8125,220.809832 L52.2465625,220.809832 C50.3758125,223.271567 47.4059375,225.790933 43.7215625,228.908218 Z M48.391875,218.932706 L46.776,215.686472 C46.61725,215.367423 46.292625,215.165899 45.9375,215.165899 C45.582375,215.165899 45.25775,215.367423 45.099,215.686472 L42.1875,221.535445 L41.151,219.453216 C40.99225,219.134231 40.667625,218.932706 40.3125,218.932706 C39.957375,218.932706 39.63275,219.134231 39.474,219.453279 L38.4375,221.535445 L35.526,215.686409 C35.36725,215.367423 35.042625,215.165899 34.6875,215.165899 C34.332375,215.165899 34.00775,215.367423 33.849,215.686472 L32.2330625,218.932706 L27.1675,218.932706 C26.5300625,217.706234 26.1875,216.457663 26.1875,215.11963 C26.1875,210.994285 29.035625,207.883404 32.8125,207.883404 C34.8404375,207.883404 36.5543125,208.834774 37.9066875,210.711084 C38.97125,212.188237 39.40425,213.705256 39.4095,213.723902 C39.5225,214.130843 39.8916875,214.412537 40.3125,214.412537 C40.733875,214.412537 41.1035,214.130089 41.216,213.722144 C41.232125,213.663759 42.8826875,207.883404 47.8125,207.883404 C51.589375,207.883404 54.4375,210.994285 54.4375,215.11963 C54.4375,216.457725 54.0949375,217.706234 53.4575,218.932706 L48.391875,218.932706 Z" id="Shape-Copy-2"></path>
        </g>
    </g>
</svg>