<?xml version="1.0" encoding="UTF-8"?>
<svg width="19px" height="17px" viewBox="0 0 19 17" version="1.1" xmlns="http://www.w3.org/2000/svg" xmlns:xlink="http://www.w3.org/1999/xlink">
    <!-- Generator: Sketch 58 (84663) - https://sketch.com -->
    <title>Shape Copy 9</title>
    <desc>Created with Sketch.</desc>
    <g id="Page-2" stroke="none" stroke-width="1" fill="none" fill-rule="evenodd">
        <g id="instances" transform="translate(-161.000000, -204.000000)" fill="#23211A" fill-rule="nonzero">
            <path d="M174.953125,204 C173.3821,204 172.016734,204.768048 171.004725,206.221163 C170.804705,206.508295 170.637602,206.795045 170.5,207.061518 C170.362398,206.795045 170.195295,206.508295 169.995275,206.221163 C168.983266,204.768048 167.6179,204 166.046875,204 C163.1375,204 161,206.487293 161,209.536918 C161,212.935958 163.68876,215.262094 167.758693,218.783144 C168.516801,219.439015 169.300699,220.117222 170.135437,220.860303 C170.240049,220.953422 170.370006,221 170.5,221 C170.629994,221 170.759951,220.953422 170.864563,220.860303 C171.699301,220.117222 172.483199,219.439015 173.241307,218.783144 C177.31124,215.262055 180,212.935958 180,209.536918 C180,206.488093 177.863502,204 174.953125,204 Z M172.524131,217.908561 C171.874086,218.470932 171.205152,219.049655 170.5,219.672859 C169.794848,219.049655 169.125914,218.470932 168.475869,217.908561 C166.288271,216.015924 164.524908,214.490082 163.41415,212.995496 L166.046875,212.995496 C166.25773,212.995496 166.450477,212.873142 166.544734,212.679433 L167.160156,211.415223 L168.888859,214.966424 C168.983117,215.160132 169.175863,215.282486 169.386719,215.282486 C169.597574,215.282486 169.79032,215.160132 169.884578,214.966424 L170.5,213.702176 L171.115422,214.966386 C171.20968,215.160094 171.402426,215.282448 171.613281,215.282448 C171.824137,215.282448 172.016883,215.160094 172.111141,214.966386 L173.839844,211.415223 L174.455266,212.679433 C174.549523,212.873142 174.74227,212.991684 174.953125,212.991684 L177.58585,212.991684 C176.475092,214.486308 174.711729,216.015924 172.524131,217.908561 Z M175.297129,211.852 L174.337703,209.881072 C174.243445,209.687364 174.050699,209.56501 173.839844,209.56501 C173.628988,209.56501 173.436242,209.687364 173.341984,209.881072 L171.613281,213.432234 L170.997859,212.168024 C170.903602,211.974354 170.710855,211.852 170.5,211.852 C170.289145,211.852 170.096398,211.974354 170.002141,212.168062 L169.386719,213.432234 L167.658016,209.881034 C167.563758,209.687364 167.371012,209.56501 167.160156,209.56501 C166.949301,209.56501 166.756555,209.687364 166.662297,209.881072 L165.702834,211.852 L162.695156,211.852 C162.316678,211.107356 162.113281,210.349295 162.113281,209.536918 C162.113281,207.032244 163.804355,205.143495 166.046875,205.143495 C167.250963,205.143495 168.268576,205.721113 169.071549,206.860301 C169.703633,207.757144 169.960727,208.678191 169.963844,208.689512 C170.030937,208.936583 170.250143,209.107612 170.5,209.107612 C170.750191,209.107612 170.969656,208.936126 171.036453,208.688445 C171.046027,208.652996 172.026049,205.143495 174.953125,205.143495 C177.195645,205.143495 178.886719,207.032244 178.886719,209.536918 C178.886719,210.349333 178.683322,211.107356 178.304844,211.852 L175.297129,211.852 Z" id="Shape-Copy-9"></path>
        </g>
    </g>
</svg>