<?xml version="1.0" encoding="UTF-8"?>
<svg width="71px" height="71px" viewBox="0 0 71 71" version="1.1" xmlns="http://www.w3.org/2000/svg" xmlns:xlink="http://www.w3.org/1999/xlink">
    <!-- Generator: Sketch 58 (84663) - https://sketch.com -->
    <title>Green</title>
    <desc>Created with Sketch.</desc>
    <g id="Logo" stroke="none" stroke-width="1" fill="none" fill-rule="evenodd">
        <g id="iPhone-SE" transform="translate(-24.000000, -284.000000)">
            <g id="Green" transform="translate(24.000000, 284.000000)">
                <path d="M57,0 C64.7319865,-4.97305656e-15 71,6.2680135 71,14 L71,57 C71,64.7319865 64.7319865,71 57,71 L14,71 C6.2680135,71 -2.60581843e-15,64.7319865 0,57 L0,14 C-4.49960893e-15,6.2680135 6.2680135,-2.1323708e-15 14,0 L57,0 Z M43.3310101,18.2087667 C41.7179249,17.8536363 39.968276,17.7602271 38.082011,17.9285365 C36.1957459,18.0968458 34.3927867,18.4939557 32.6730792,19.119878 C29.4383913,20.2972081 26.8042807,22.009731 24.7706685,24.257498 C22.7370563,26.5052651 21.4708741,29.1096939 20.9720839,32.0708628 C20.4732937,35.0320317 20.8068449,38.1142154 21.9727475,41.3175065 C23.7443138,46.184845 26.5779582,49.5113026 30.4737657,51.2969792 C34.3695732,53.0826557 38.7741359,53.0813193 43.6875859,51.2929697 C47.7411822,49.8175813 50.8625769,47.6921436 53.0518638,44.9165929 C53.5039669,44.3751427 53.7764487,43.7224065 53.8693174,42.9583649 C53.962186,42.1943232 53.8647767,41.4171028 53.5770864,40.6266804 C53.107697,39.3370437 52.4285278,38.394674 51.5395582,37.7995432 C50.6505886,37.2044124 49.7352452,37.0782323 48.7935006,37.4209993 C48.1793193,37.644543 47.6503964,37.9430563 47.2067158,38.316548 C46.7630353,38.6900397 46.1998865,39.2130122 45.5172525,39.8854811 C44.9165093,40.5281442 44.3533605,41.0511167 43.8277891,41.4544143 C43.3022177,41.8577118 42.6914051,42.1860304 41.995333,42.43938 C40.0299628,43.1547162 38.286755,43.0471848 36.7656867,42.1167718 C35.2446184,41.1863588 34.0298547,39.4731425 33.1213592,36.9770715 C31.2892265,31.9433283 32.3999416,28.6888114 36.4535379,27.213423 C37.14961,26.9600734 37.8183225,26.822683 38.4596955,26.8012476 C39.1010685,26.7798121 39.8993344,26.8072702 40.854517,26.8836226 C41.6868635,27.0046837 42.4237121,27.0544958 43.0650851,27.0330603 C43.7064581,27.0116249 44.3342258,26.8891371 44.9484071,26.6655934 C45.8901517,26.3228264 46.5102384,25.6377955 46.8086859,24.6104802 C47.1071334,23.5831649 47.0216638,22.4247063 46.5522744,21.1350696 C45.9617523,19.5126235 44.8880082,18.5371989 43.3310101,18.2087667 Z" id="Combined-Shape" fill="#BAE1BD"></path>
                <path d="M37.9934641,53 C32.7646797,53 28.6252876,51.4948067 25.5751634,48.484375 C22.5250392,45.4739433 21,41.3789321 21,36.1992187 C21,32.7903475 21.7407333,29.779961 23.2222222,27.1679687 C24.7037111,24.5559765 26.7843003,22.5416737 29.4640523,21.125 C32.1438042,19.7083262 35.2047758,19 38.6470588,19 C40.4771333,19 42.3071804,19.2434871 44.1372549,19.7304687 C45.9673294,20.2174504 47.5795137,20.9036414 48.9738562,21.7890625 C50.3246255,22.6302125 51,23.9140539 51,25.640625 C51,27.0130277 50.684099,28.1308551 50.0522876,28.9941406 C49.4204761,29.8574262 48.6034908,30.2890625 47.6013072,30.2890625 C46.9477092,30.2890625 46.3159072,30.1894541 45.7058824,29.9902344 C45.0958575,29.7910146 44.420483,29.4921895 43.6797386,29.09375 C42.8082745,28.6953105 42.0675412,28.3964854 41.4575163,28.1972656 C40.8474915,27.9980459 40.172117,27.8984375 39.4313725,27.8984375 C35.1176255,27.8984375 32.9607843,30.5767961 32.9607843,35.9335937 C32.9607843,38.589857 33.5163343,40.6152274 34.627451,42.0097656 C35.7385676,43.4043038 37.3398693,44.1015625 39.4313725,44.1015625 C40.172117,44.1015625 40.8583846,44.0019541 41.4901961,43.8027344 C42.1220075,43.6035146 42.8300614,43.3046895 43.6143791,42.90625 C44.4858431,42.5078105 45.1938971,42.2089854 45.7385621,42.0097656 C46.2832271,41.8105459 46.8823497,41.7109375 47.5359477,41.7109375 C48.5381314,41.7109375 49.3551167,42.1425738 49.9869281,43.0058594 C50.6187395,43.8691449 50.9346405,44.9869723 50.9346405,46.359375 C50.9346405,47.200525 50.7603503,47.9641893 50.4117647,48.6503906 C50.0631791,49.336592 49.583881,49.8567691 48.9738562,50.2109375 C45.9673052,52.0703218 42.3072111,53 37.9934641,53 Z" id="c" fill="#FAF3F2" fill-rule="nonzero" transform="translate(36.000000, 36.000000) rotate(-20.000000) translate(-36.000000, -36.000000) "></path>
            </g>
        </g>
    </g>
</svg>