<?xml version="1.0" encoding="UTF-8"?>
<svg width="71px" height="71px" viewBox="0 0 71 71" version="1.1" xmlns="http://www.w3.org/2000/svg" xmlns:xlink="http://www.w3.org/1999/xlink">
    <!-- Generator: Sketch 58 (84663) - https://sketch.com -->
    <title>Purple2</title>
    <desc>Created with Sketch.</desc>
    <g id="Logo" stroke="none" stroke-width="1" fill="none" fill-rule="evenodd">
        <g id="iPhone-SE" transform="translate(-233.000000, -474.000000)">
            <g id="Purple2" transform="translate(233.000000, 474.000000)">
                <rect id="Rectangle-Copy-5" fill="#FFFFFF" x="10" y="13" width="51" height="46"></rect>
                <path d="M57,0 C64.7319865,-4.97305656e-15 71,6.2680135 71,14 L71,57 C71,64.7319865 64.7319865,71 57,71 L14,71 C6.2680135,71 -2.60581843e-15,64.7319865 0,57 L0,14 C-4.49960893e-15,6.2680135 6.2680135,-2.1323708e-15 14,0 L57,0 Z M42.3642132,17.8007667 C40.751128,17.4456363 39.0014791,17.3522271 37.1152141,17.5205365 C35.2289491,17.6888458 33.4259898,18.0859557 31.7062823,18.711878 C28.4715944,19.8892081 25.8374838,21.601731 23.8038717,23.849498 C21.7702595,26.0972651 20.5040773,28.7016939 20.005287,31.6628628 C19.5064968,34.6240317 19.840048,37.7062154 21.0059506,40.9095065 C22.777517,45.776845 25.6111613,49.1033026 29.5069688,50.8889792 C33.4027763,52.6746557 37.807339,52.6733193 42.720789,50.8849697 C46.7743853,49.4095813 49.8957801,47.2841436 52.0850669,44.5085929 C52.53717,43.9671427 52.8096518,43.3144065 52.9025205,42.5503649 C52.9953891,41.7863232 52.8979798,41.0091028 52.6102895,40.2186804 C52.1409002,38.9290437 51.4617309,37.986674 50.5727613,37.3915432 C49.6837917,36.7964124 48.7684483,36.6702323 47.8267037,37.0129993 C47.2125225,37.236543 46.6835995,37.5350563 46.239919,37.908548 C45.7962384,38.2820397 45.2330896,38.8050122 44.5504556,39.4774811 C43.9497124,40.1201442 43.3865636,40.6431167 42.8609922,41.0464143 C42.3354208,41.4497118 41.7246082,41.7780304 41.0285362,42.03138 C39.063166,42.7467162 37.3199581,42.6391848 35.7988898,41.7087718 C34.2778215,40.7783588 33.0630578,39.0651425 32.1545623,36.5690715 C30.3224296,31.5353283 31.4331447,28.2808114 35.486741,26.805423 C36.1828131,26.5520734 36.8515256,26.414683 37.4928986,26.3932476 C38.1342716,26.3718121 38.9325375,26.3992702 39.8877202,26.4756226 C40.7200666,26.5966837 41.4569152,26.6464958 42.0982882,26.6250603 C42.7396613,26.6036249 43.367429,26.4811371 43.9816102,26.2575934 C44.9233548,25.9148264 45.5434416,25.2297955 45.841889,24.2024802 C46.1403365,23.1751649 46.0548669,22.0167063 45.5854775,20.7270696 C44.9949554,19.1046235 43.9212114,18.1291989 42.3642132,17.8007667 Z" id="Combined-Shape-Copy-6" fill="#DEA4D1"></path>
            </g>
        </g>
    </g>
</svg>